<svg width="160" height="49" viewBox="0 0 160 49" fill="none" xmlns="http://www.w3.org/2000/svg">
<path fill-rule="evenodd" clip-rule="evenodd" d="M48.031 7.783C51.682 11.757 59.647 8.158 57.062 2.861C55.336 -0.695001 52.75 0.129999 50.904 1.041C47.208 2.82 46.509 6.088 48.031 7.783ZM42.105 5.002C44.481 9.868 37.168 13.173 33.813 9.523C32.415 7.968 33.058 4.963 36.449 3.33C38.146 2.494 40.522 1.734 42.105 5.002ZM157.936 33.374C156.715 33.5332 155.442 33.6425 154.221 33.7474L154.179 33.751V33.807C151.764 51.171 127.991 54.038 127.4 40.406C127.131 34.239 138.993 32.456 150.798 31.318C151.007 25.9112 147.233 27.1234 142.648 28.5959C137.829 30.1437 132.115 31.979 129.19 26.717C124.171 17.692 143.822 8.779 145.918 10.615C152.271 16.1766 149.4 17.2063 144.727 18.8824L144.539 18.95C135.049 22.36 138.748 23.057 140.028 22.676C147.597 20.423 154.394 21.636 154.34 30.993C154.955 30.9419 155.557 30.9025 156.154 30.8634L156.154 30.8634C156.807 30.8207 157.452 30.7784 158.097 30.722C160.403 30.507 160.564 33.157 157.936 33.374ZM150.422 34.13C141.298 35.158 133.409 36.566 134.269 39.485C135.985 45.058 147.846 46.303 150.422 34.13ZM117.79 17.23C116.975 22.88 116.996 28.881 117.678 28.918C118.012 28.937 119.982 28.572 120.617 27.411C121.226 26.2934 121.794 24.7543 122.388 23.141L122.388 23.1409L122.388 23.1409L122.388 23.1408L122.388 23.1407L122.388 23.1406L122.388 23.1405C123.586 19.8907 124.895 16.3397 126.883 15.324C129.725 13.873 118.795 10.279 117.79 17.23ZM28.883 45.666C20.964 51.004 14.664 49.825 16.671 34.818C18.121 23.914 15.723 23.297 13.549 25.376C10.704 28.073 8.921 35.099 8.865 41.788C9.12323 43.3951 9.45828 44.9889 9.869 46.564C10.203 48.194 4.962 49.879 1.895 47.575C0.837 46.79 0 38.865 0 28.131C0 19.307 1.171 13.236 2.23 12.956C10.259 10.765 11.542 14.304 9.813 20.937C9.12537 23.5343 8.65871 26.1851 8.418 28.861C10.091 24.197 12.489 20.376 15.221 18.688C22.637 14.024 28.826 16.215 27.655 25.489C25.648 42.069 25.481 44.316 27.265 43.024C29.496 41.45 30.945 44.262 28.883 45.666ZM41.766 48.142C47.176 48.761 52.807 47.074 54.982 43.59C56.821 40.667 55.316 39.655 53.197 42.015C48.737 47.131 44.109 44.826 42.158 39.655L42.66 39.487C52.082 35.721 57.992 25.493 54.257 19.704C49.126 11.723 33.069 18.86 31.061 30.045C29.221 40.386 34.016 47.299 41.766 48.142ZM41.377 36.172C47.232 32.013 49.183 22.852 47.566 20.267C45.838 17.57 42.492 21.784 41.321 32.013C41.21 33.474 41.21 34.878 41.377 36.172ZM78.18 33.6778C80.243 33.0028 82.549 31.1258 84.146 28.6188C84.593 27.9158 84.969 27.2838 85.485 25.6388C85.4225 25.8379 85.4465 25.7472 85.5059 25.5221C85.6138 25.113 85.8389 24.2603 85.875 23.8978C85.875 23.8418 85.931 23.5588 85.987 23.4488C87.212 16.5918 82.976 12.7128 77.12 15.6358C73.831 17.2648 69.761 23.4488 67.308 30.1368C67.921 26.5388 68.98 23.1108 70.151 19.7378C72.158 13.7808 68.423 10.7458 62.011 12.4888C60.951 12.7698 59 20.5818 59 29.4058C59 40.1398 59.558 46.3218 60.617 47.1098C63.683 49.4698 69.147 47.7278 68.59 46.1538C68.3739 45.5558 68.2104 44.955 68.0475 44.3569L68.032 44.2998C68.032 44.1308 68.032 43.9618 67.977 43.7938C66.916 36.8228 70.988 27.1588 74.333 24.5728C75.225 23.8418 76.451 24.3478 76.619 26.2588C73.887 27.6078 72.995 29.9688 72.995 30.9798C72.995 33.7338 75.782 34.4078 78.18 33.6778Z" fill="black"/>
</svg>
